<svg width="38" height="39" viewBox="0 0 38 39" fill="none" xmlns="http://www.w3.org/2000/svg">
<g clip-path="url(#clip0_303_443)">
<path d="M33.25 16.0996C33.25 27.1829 19 36.6829 19 36.6829C19 36.6829 4.75 27.1829 4.75 16.0996C4.75 12.3203 6.25133 8.69573 8.92373 6.02334C11.5961 3.35094 15.2207 1.84961 19 1.84961C22.7793 1.84961 26.4039 3.35094 29.0763 6.02334C31.7487 8.69573 33.25 12.3203 33.25 16.0996Z" stroke="white" stroke-width="2" stroke-linecap="round" stroke-linejoin="round"/>
<path d="M19 20.8496C21.6234 20.8496 23.75 18.723 23.75 16.0996C23.75 13.4763 21.6234 11.3496 19 11.3496C16.3766 11.3496 14.25 13.4763 14.25 16.0996C14.25 18.723 16.3766 20.8496 19 20.8496Z" stroke="white" stroke-width="2" stroke-linecap="round" stroke-linejoin="round"/>
</g>
<defs>
<clipPath id="clip0_303_443">
<rect width="38" height="38" fill="white" transform="translate(0 0.266602)"/>
</clipPath>
</defs>
</svg>
