<svg width="100" height="76" viewBox="0 0 100 76" fill="none" xmlns="http://www.w3.org/2000/svg">
<path opacity="0.2" d="M79.2 75.0152C72.2 75.0152 66.4 72.7152 61.8 68.1152C57.4 63.5152 55.2 56.9152 55.2 48.3152C55.2 39.1152 57.8 30.0152 63 21.0152C68.4 12.0152 75.9 5.01522 85.5 0.0152149L92.4 10.5152C82 17.7152 75.8 26.8152 73.8 37.8152C75.6 37.0152 77.7 36.6152 80.1 36.6152C85.7 36.6152 90.3 38.4152 93.9 42.0152C97.5 45.6152 99.3 50.2152 99.3 55.8152C99.3 61.4152 97.4 66.0152 93.6 69.6152C89.8 73.2152 85 75.0152 79.2 75.0152ZM24 75.0152C17 75.0152 11.2 72.7152 6.6 68.1152C2.2 63.5152 8.49366e-07 56.9152 8.49366e-07 48.3152C8.49366e-07 39.1152 2.6 30.0152 7.8 21.0152C13.2 12.0152 20.7 5.01522 30.3 0.0152149L37.2 10.5152C26.8 17.7152 20.6 26.8152 18.6 37.8152C20.4 37.0152 22.5 36.6152 24.9 36.6152C30.5 36.6152 35.1 38.4152 38.7 42.0152C42.3 45.6152 44.1 50.2152 44.1 55.8152C44.1 61.4152 42.2 66.0152 38.4 69.6152C34.6 73.2152 29.8 75.0152 24 75.0152Z" fill="#03837E"/>
</svg>
